<?xml version="1.0" standalone="no"?>
<!DOCTYPE svg PUBLIC "-//W3C//DTD SVG 20010904//EN"
 "http://www.w3.org/TR/2001/REC-SVG-20010904/DTD/svg10.dtd">
<svg version="1.0" xmlns="http://www.w3.org/2000/svg"
 width="44px" height="44px" viewBox="0 0 512.000000 512.000000"
 preserveAspectRatio="xMidYMid meet">
<metadata>
Created by potrace 1.16, written by Peter Selinger 2001-2019
</metadata>
<g transform="translate(0.000000,512.000000) scale(0.100000,-0.100000)"
fill="#0d7657" stroke="none">
<path d="M31 4132 l-31 -30 0 -1009 0 -1009 31 -30 30 -29 349 -3 c402 -3 407
-2 440 70 11 24 20 51 20 60 0 11 57 -40 147 -132 234 -241 1042 -884 1223
-975 130 -65 192 -80 330 -80 115 0 129 2 180 27 48 23 62 26 115 19 79 -9
155 4 217 35 57 29 138 101 168 149 20 32 21 33 113 37 77 3 103 9 158 35 77
36 140 89 175 148 23 40 28 43 78 48 107 11 224 95 273 195 20 42 29 77 33
137 l5 80 77 53 77 52 17 -60 c11 -42 26 -68 46 -85 l30 -25 354 0 c378 0 399
2 424 49 14 27 14 2015 0 2042 -6 10 -25 26 -43 35 -28 15 -56 16 -222 11
-402 -14 -782 -80 -1076 -187 -101 -36 -131 -63 -139 -125 l-5 -44 -240 98
c-132 54 -288 118 -346 143 -346 150 -568 142 -826 -28 l-97 -64 -418 0 -418
0 0 74 c0 94 -14 113 -125 167 -171 82 -581 158 -957 176 l-136 6 -31 -31z
m379 -217 c238 -27 421 -60 559 -101 l84 -25 -7 -56 c-27 -233 -173 -813 -343
-1363 l-39 -125 -222 -3 -222 -2 0 845 0 845 28 0 c15 0 88 -7 162 -15z m4490
-1035 l0 -850 -222 2 -221 3 -62 190 c-132 403 -318 913 -427 1170 -33 77 -62
148 -65 157 -4 13 9 21 64 37 227 67 528 116 828 134 28 2 62 4 78 5 l27 2 0
-850z m-2129 811 c41 -11 163 -58 273 -105 166 -72 494 -203 677 -270 l46 -17
78 -202 c84 -220 175 -468 265 -729 l57 -167 -93 -62 -93 -61 -28 33 c-111
136 -277 285 -726 651 -175 143 -352 292 -395 332 -42 40 -88 80 -102 89 -40
28 -93 21 -213 -29 -62 -25 -136 -50 -166 -55 -51 -8 -58 -13 -150 -107 -81
-84 -104 -102 -149 -117 -63 -20 -147 -17 -206 8 l-38 17 4 59 c12 161 210
422 471 620 168 126 307 158 488 112z m-925 -203 c-199 -243 -289 -458 -256
-610 32 -154 141 -227 347 -236 171 -7 270 34 414 174 42 41 85 74 94 74 10 0
57 16 106 35 l89 36 82 -73 c46 -41 207 -174 358 -298 445 -362 618 -519 718
-647 74 -96 79 -167 17 -221 -44 -40 -88 -49 -123 -27 -15 9 -169 161 -342
336 -303 306 -317 319 -353 319 -44 0 -92 -22 -107 -49 -5 -11 -10 -41 -10
-66 l0 -47 224 -232 c124 -128 266 -272 317 -320 l92 -88 -20 -26 c-28 -38
-99 -72 -149 -72 -37 0 -51 7 -106 54 -35 29 -167 160 -294 290 -219 225 -232
236 -268 236 -43 0 -91 -22 -106 -49 -5 -11 -10 -40 -10 -66 0 -45 2 -48 129
-183 71 -75 186 -193 255 -262 69 -69 126 -128 126 -132 0 -17 -67 -82 -97
-94 -63 -27 -84 -19 -174 59 -46 41 -179 172 -296 293 l-212 219 -51 0 c-46 0
-55 -4 -81 -33 -35 -39 -39 -91 -10 -137 10 -16 115 -129 232 -249 l214 -219
-55 5 c-123 13 -198 54 -466 256 -247 185 -529 408 -696 549 -111 94 -424 420
-420 439 1 7 32 115 68 240 66 233 147 548 184 714 11 52 22 105 25 118 l5 22
316 0 317 0 -27 -32z"/>
</g>
</svg>
