<?xml version="1.0" standalone="no"?>
<!DOCTYPE svg PUBLIC "-//W3C//DTD SVG 20010904//EN"
 "http://www.w3.org/TR/2001/REC-SVG-20010904/DTD/svg10.dtd">
<svg version="1.0" xmlns="http://www.w3.org/2000/svg"
 width="46px" height="46px" viewBox="0 0 512.000000 512.000000"
 preserveAspectRatio="xMidYMid meet">
<metadata>
Created by potrace 1.16, written by Peter Selinger 2001-2019
</metadata>
<g transform="translate(0.000000,512.000000) scale(0.100000,-0.100000)"
fill="#0d7657" stroke="none">
<path d="M1091 4320 c-350 -48 -626 -312 -686 -655 -19 -110 -19 -170 0 -280
30 -169 118 -331 246 -449 l71 -65 -342 -3 -342 -3 -19 -24 c-20 -25 -25 -81
-9 -111 20 -37 61 -40 476 -40 l404 0 0 -75 0 -75 -177 0 c-186 -1 -198 -3
-221 -47 -19 -35 -14 -63 17 -94 l29 -29 176 0 176 0 0 -75 0 -75 -410 0
c-432 0 -457 -2 -474 -45 -9 -25 -7 -74 4 -95 20 -37 61 -40 476 -40 l404 0 0
-174 0 -174 -32 -13 c-50 -21 -141 -117 -173 -184 -26 -54 -30 -73 -33 -181
l-4 -121 27 -21 c27 -22 34 -22 401 -22 309 0 374 -2 374 -14 0 -7 16 -45 35
-83 85 -171 279 -273 466 -245 169 25 312 141 365 296 l16 46 778 0 778 0 6
-26 c21 -84 98 -187 182 -245 131 -90 316 -99 465 -23 80 40 158 125 199 217
l35 77 146 0 c133 0 149 2 173 21 l26 20 0 493 0 493 -151 231 c-174 267 -228
326 -361 392 -127 63 -184 69 -595 70 l-353 0 0 224 c0 189 -3 233 -18 283
-46 147 -170 260 -320 292 -36 7 -258 11 -697 11 l-644 0 -11 43 c-68 276
-296 506 -571 576 -92 23 -224 32 -308 21z m309 -203 c149 -53 275 -164 350
-307 49 -95 70 -180 70 -285 0 -207 -104 -400 -277 -519 -101 -69 -195 -99
-324 -104 -191 -7 -330 47 -465 183 -127 126 -187 269 -187 440 0 104 16 170
65 274 74 156 237 289 408 336 90 24 267 15 360 -18z m1950 -643 c60 -33 112
-99 130 -162 6 -24 10 -315 10 -809 l0 -773 -1215 0 -1215 0 0 155 0 155 79 0
c102 0 139 13 157 56 12 29 12 39 0 69 -19 45 -47 55 -152 55 l-84 0 0 75 0
75 300 0 301 0 24 25 c34 33 34 87 0 120 l-24 25 -301 0 -300 0 0 75 0 74 546
3 546 3 24 28 c31 36 31 78 0 114 l-24 28 -246 3 -247 3 49 38 c154 122 281
372 282 554 l0 48 653 -3 652 -3 55 -31z m1171 -826 c103 -51 155 -109 303
-338 l126 -194 0 -398 0 -399 -86 3 -87 3 -13 52 c-20 78 -50 130 -112 195
-174 182 -471 184 -647 3 -56 -57 -108 -152 -120 -217 l-7 -38 -109 0 -109 0
0 685 0 686 393 -3 393 -3 75 -37z m-2988 -1110 c-28 -31 -70 -116 -84 -172
l-11 -46 -309 0 -309 0 0 23 c0 39 46 122 86 156 66 54 101 60 388 60 l259 1
-20 -22z m1957 -98 l0 -120 -575 0 -575 0 -6 28 c-11 55 -37 114 -69 163 l-34
49 630 0 629 0 0 -120z m-1522 85 c196 -59 265 -297 129 -451 -106 -120 -284
-128 -400 -16 -56 54 -79 105 -85 187 -4 64 -1 75 29 134 39 74 87 116 161
142 65 23 100 23 166 4z m2476 -14 c57 -28 114 -85 140 -141 31 -68 29 -169
-6 -236 -52 -98 -140 -153 -248 -154 -229 0 -364 262 -227 442 35 45 121 104
166 112 49 8 132 -3 175 -23z"/>
<path d="M1180 3957 c-44 -22 -50 -49 -50 -234 l0 -172 -85 -116 c-47 -64 -88
-128 -91 -141 -17 -68 63 -128 126 -94 10 5 65 74 122 152 l103 143 3 185 c4
211 -3 252 -48 275 -35 18 -48 18 -80 2z"/>
<path d="M4085 2596 l-25 -25 0 -318 c1 -234 4 -322 13 -334 28 -36 50 -39
349 -39 269 0 297 2 336 20 34 15 47 29 64 66 13 31 18 58 15 81 -8 49 -223
420 -272 469 -23 22 -68 54 -101 70 -56 27 -67 29 -206 32 -146 4 -147 4 -173
-22z m328 -183 c33 -23 61 -62 134 -188 51 -88 93 -163 93 -167 0 -5 -92 -8
-205 -8 l-205 0 0 201 0 202 71 -5 c57 -4 79 -11 112 -35z"/>
<path d="M1812 1370 c-35 -22 -62 -72 -62 -116 0 -41 39 -101 78 -120 128 -60
252 85 174 204 -35 53 -129 69 -190 32z"/>
<path d="M4246 1369 c-56 -44 -71 -116 -38 -178 63 -118 249 -77 255 56 3 88
-50 143 -140 143 -36 0 -58 -6 -77 -21z"/>
</g>
</svg>
