<?xml version="1.0" standalone="no"?>
<!DOCTYPE svg PUBLIC "-//W3C//DTD SVG 20010904//EN"
 "http://www.w3.org/TR/2001/REC-SVG-20010904/DTD/svg10.dtd">
<svg version="1.0" xmlns="http://www.w3.org/2000/svg"
 width="44px" height="44px" viewBox="0 0 512.000000 512.000000"
 preserveAspectRatio="xMidYMid meet">
<metadata>
Created by potrace 1.16, written by Peter Selinger 2001-2019
</metadata>
<g transform="translate(0.000000,512.000000) scale(0.100000,-0.100000)"
fill="#0d7657" stroke="none">
<path d="M2425 5068 c-273 -153 -781 -388 -1118 -517 -274 -105 -540 -191
-954 -307 -33 -9 -59 -24 -73 -41 l-21 -27 4 -741 c3 -706 4 -746 26 -880 122
-772 480 -1406 1091 -1937 282 -244 666 -473 970 -579 86 -30 106 -33 210 -33
104 0 124 3 210 33 304 106 688 335 970 579 611 531 969 1165 1091 1937 22
134 23 174 26 881 l4 742 -23 26 c-19 23 -54 36 -202 77 -639 178 -1324 454
-1904 767 -167 90 -180 91 -307 20z m277 -245 c526 -281 1255 -573 1836 -734
l122 -34 0 -475 c0 -537 -11 -800 -40 -998 -124 -848 -620 -1583 -1407 -2088
-231 -148 -544 -284 -653 -284 -109 0 -422 136 -653 284 -787 505 -1283 1240
-1407 2088 -29 198 -40 461 -40 998 l0 475 143 39 c403 111 924 303 1377 511
143 65 516 255 555 281 11 8 20 14 21 14 1 0 67 -34 146 -77z"/>
<path d="M2519 4716 c-20 -7 -78 -35 -130 -63 -413 -223 -1128 -510 -1648
-663 -48 -14 -84 -32 -103 -50 l-28 -28 0 -544 c0 -588 6 -683 56 -928 145
-702 567 -1317 1209 -1761 169 -118 440 -260 582 -308 111 -37 171 -25 382 75
306 145 594 349 846 598 466 462 735 1010 810 1651 12 101 15 251 15 671 0
523 -1 542 -20 566 -24 31 -30 33 -254 103 -475 149 -941 337 -1406 569 -124
62 -237 115 -250 119 -14 3 -41 0 -61 -7z m194 -292 c452 -227 937 -425 1420
-579 l177 -56 0 -342 c0 -685 -29 -932 -150 -1282 -188 -543 -597 -1038 -1142
-1381 -117 -73 -315 -174 -400 -203 -58 -20 -58 -20 -115 0 -86 29 -284 130
-401 203 -545 343 -954 838 -1142 1381 -121 350 -150 597 -150 1281 l0 342
178 57 c490 158 920 332 1362 552 113 56 206 102 208 102 1 1 71 -33 155 -75z"/>
<path d="M2421 3874 c-173 -46 -323 -195 -375 -373 -12 -42 -16 -102 -16 -263
l0 -208 -26 0 c-38 0 -91 -28 -130 -68 -63 -65 -65 -88 -62 -563 3 -391 4
-427 22 -459 26 -49 55 -79 101 -103 40 -22 45 -22 625 -22 580 0 585 0 625
22 46 24 75 54 101 103 18 32 19 68 22 459 3 475 1 498 -62 563 -39 40 -92 68
-130 68 l-26 0 0 208 c0 161 -4 221 -16 263 -53 180 -203 328 -379 374 -73 19
-202 18 -274 -1z m275 -224 c69 -34 138 -108 163 -175 19 -49 21 -78 21 -250
l0 -195 -320 0 -320 0 0 195 c0 166 3 202 19 244 35 92 113 167 205 197 61 20
172 12 232 -16z m399 -1230 l0 -395 -535 0 -535 0 -3 385 c-1 212 0 391 3 398
3 10 116 12 537 10 l533 -3 0 -395z"/>
<path d="M2495 2610 c-23 -11 -48 -33 -58 -49 -24 -40 -22 -117 3 -159 14 -23
20 -50 20 -96 0 -54 4 -67 25 -89 44 -43 106 -43 150 0 21 22 25 35 25 89 0
46 6 73 20 96 25 42 27 119 3 159 -19 32 -85 69 -124 69 -13 0 -42 -9 -64 -20z"/>
<path d="M1626 1570 c-41 -13 -65 -38 -72 -77 -13 -69 33 -123 105 -123 112 0
139 153 34 196 -18 8 -34 14 -35 13 -2 0 -16 -5 -32 -9z"/>
<path d="M1788 1343 c-35 -38 -43 -80 -21 -120 22 -39 174 -165 311 -258 88
-59 110 -69 144 -69 49 2 86 35 94 85 9 58 -8 83 -113 155 -54 37 -134 97
-178 134 -113 93 -124 100 -170 100 -32 0 -47 -6 -67 -27z"/>
</g>
</svg>
